<?xml version="1.0" encoding="UTF-8"?>
<svg id="Layer_1" data-name="Layer 1" xmlns="http://www.w3.org/2000/svg" viewBox="0 0 100 50.2">
  <defs>
    <style>
      .cls-1, .cls-2, .cls-3, .cls-4 {
        stroke-width: 0px;
      }

      .cls-2 {
        fill: #23e2dd;
      }

      .cls-3 {
        fill: #fff;
      }

      .cls-4 {
        fill: #ffa1ff;
      }
    </style>
  </defs>
  <rect class="cls-2" x="15.36" y="23.12" width="23.1" height="23.1"/>
  <path class="cls-3" d="M23.28,30.08c2.79,0,5.22,1.03,6.96,2.71.74.68.54,2.14-.26,2.85-.8.68-1.97.66-2.68.03-1.03-.97-2.42-1.54-4.02-1.54-3.25,0-5.7,2.68-5.7,6.02s2.45,6.02,5.7,6.02c1.6,0,2.99-.57,4.02-1.54.71-.63,1.88-.66,2.68.03.8.71,1,2.17.26,2.85-1.74,1.68-4.16,2.71-6.96,2.71-5.62,0-9.86-4.48-9.86-10.06s4.25-10.06,9.86-10.06Z"/>
  <rect class="cls-1" x="38.46" y="23.12" width="23.1" height="23.1"/>
  <rect class="cls-4" x="61.56" y="23.12" width="23.1" height="23.1"/>
  <path class="cls-1" d="M69.48,30.08c2.79,0,5.22,1.03,6.96,2.71.74.68.54,2.14-.26,2.85-.8.68-1.97.66-2.68.03-1.03-.97-2.42-1.54-4.02-1.54-3.25,0-5.7,2.68-5.7,6.02s2.45,6.02,5.7,6.02c1.6,0,2.99-.57,4.02-1.54.71-.63,1.88-.66,2.68.03.8.71,1,2.17.26,2.85-1.74,1.68-4.16,2.71-6.96,2.71-5.62,0-9.86-4.48-9.86-10.06s4.25-10.06,9.86-10.06Z"/>
  <path class="cls-4" d="M92.58,30.08c2.79,0,5.22,1.03,6.96,2.71.74.68.54,2.14-.26,2.85-.8.68-1.97.66-2.68.03-1.03-.97-2.42-1.54-4.02-1.54-3.25,0-5.7,2.68-5.7,6.02s2.45,6.02,5.7,6.02c1.6,0,2.99-.57,4.02-1.54.71-.63,1.88-.66,2.68.03.8.71,1,2.17.26,2.85-1.74,1.68-4.16,2.71-6.96,2.71-5.62,0-9.86-4.48-9.86-10.06s4.25-10.06,9.86-10.06Z"/>
  <path class="cls-2" d="M46.38,30.08c2.79,0,5.22,1.03,6.96,2.71.74.68.54,2.14-.26,2.85-.8.68-1.97.66-2.68.03-1.03-.97-2.42-1.54-4.02-1.54-3.25,0-5.7,2.68-5.7,6.02s2.45,6.02,5.7,6.02c1.6,0,2.99-.57,4.02-1.54.71-.63,1.88-.66,2.68.03.8.71,1,2.17.26,2.85-1.74,1.68-4.16,2.71-6.96,2.71-5.62,0-9.86-4.48-9.86-10.06s4.25-10.06,9.86-10.06Z"/>
  <rect class="cls-2" x="61.56" y=".02" width="23.1" height="23.1"/>
  <path class="cls-3" d="M86.61,17.04c0,5.59-4.25,10.06-9.86,10.06-2.79,0-5.22-1.03-6.96-2.71-.74-.68-.54-2.14.26-2.85.8-.68,1.97-.66,2.68-.03,1.03.97,2.42,1.54,4.02,1.54,3.25,0,5.7-2.68,5.7-6.02,0-3.34-2.45-6.02-5.7-6.02-1.6,0-2.99.57-4.02,1.54-.71.63-1.88.66-2.68-.03-.8-.71-1-2.17-.26-2.85,1.74-1.68,4.16-2.71,6.96-2.71,5.62,0,9.86,4.48,9.86,10.06Z"/>
  <rect class="cls-1" x="38.46" y=".02" width="23.1" height="23.1" transform="translate(100.02 23.14) rotate(-180)"/>
  <path class="cls-2" d="M63.51,17.04c0,5.59-4.25,10.06-9.86,10.06-2.79,0-5.22-1.03-6.96-2.71-.74-.68-.54-2.14.26-2.85.8-.68,1.97-.66,2.68-.03,1.03.97,2.42,1.54,4.02,1.54,3.25,0,5.7-2.68,5.7-6.02s-2.45-6.02-5.7-6.02c-1.6,0-2.99.57-4.02,1.54-.71.63-1.88.66-2.68-.03-.8-.71-1-2.17-.26-2.85,1.74-1.68,4.16-2.71,6.96-2.71,5.62,0,9.86,4.48,9.86,10.06Z"/>
  <rect class="cls-4" x="15.36" y=".02" width="23.1" height="23.1"/>
  <path class="cls-1" d="M40.41,17.04c0,5.59-4.25,10.06-9.86,10.06-2.79,0-5.22-1.03-6.96-2.71-.74-.68-.54-2.14.26-2.85.8-.68,1.97-.66,2.68-.03,1.03.97,2.42,1.54,4.02,1.54,3.25,0,5.7-2.68,5.7-6.02s-2.45-6.02-5.7-6.02c-1.6,0-2.99.57-4.02,1.54-.71.63-1.88.66-2.68-.03-.8-.71-1-2.17-.26-2.85,1.74-1.68,4.16-2.71,6.96-2.71,5.62,0,9.86,4.48,9.86,10.06Z"/>
  <path class="cls-4" d="M17.3,17.04c0,5.59-4.25,10.06-9.86,10.06-2.79,0-5.22-1.03-6.96-2.71-.74-.68-.54-2.14.26-2.85.8-.68,1.97-.66,2.68-.03,1.03.97,2.42,1.54,4.02,1.54,3.25,0,5.7-2.68,5.7-6.02s-2.45-6.02-5.7-6.02c-1.6,0-2.99.57-4.02,1.54-.71.63-1.88.66-2.68-.03-.8-.71-1-2.17-.26-2.85,1.74-1.68,4.16-2.71,6.96-2.71,5.62,0,9.86,4.48,9.86,10.06Z"/>
</svg>